<svg xmlns="http://www.w3.org/2000/svg" viewBox="0 0 256 256" role="img" aria-label="Villainess Diary crest">
  <defs>
    <linearGradient id="shield" x1="42" x2="214" y1="28" y2="232" gradientUnits="userSpaceOnUse">
      <stop offset="0" stop-color="#4b1d67"/>
      <stop offset="0.48" stop-color="#281034"/>
      <stop offset="1" stop-color="#7b1023"/>
    </linearGradient>
    <linearGradient id="gem" x1="92" x2="164" y1="46" y2="146" gradientUnits="userSpaceOnUse">
      <stop offset="0" stop-color="#f8df9a"/>
      <stop offset="1" stop-color="#b77a2b"/>
    </linearGradient>
    <filter id="shadow" x="-20%" y="-20%" width="140%" height="140%">
      <feDropShadow dx="0" dy="8" stdDeviation="8" flood-color="#120814" flood-opacity="0.45"/>
    </filter>
  </defs>
  <rect width="256" height="256" rx="48" fill="#16091d"/>
  <path d="M128 22 213 58v61c0 57-34 96-85 116-51-20-85-59-85-116V58l85-36Z" fill="url(#shield)" stroke="#e4bd68" stroke-width="7" filter="url(#shadow)"/>
  <path d="M78 82c18-25 36-33 50-33s32 8 50 33l-22 7-12-22-16 25-16-25-12 22-22-7Z" fill="url(#gem)" stroke="#ffe8a8" stroke-width="4" stroke-linejoin="round"/>
  <path d="M85 121c18-17 31-25 43-25s25 8 43 25c-19 8-30 21-43 46-13-25-24-38-43-46Z" fill="#f3dca0" opacity="0.94"/>
  <path d="M128 103c11 0 20 11 20 25 0 16-8 31-20 49-12-18-20-33-20-49 0-14 9-25 20-25Z" fill="#7b1023" stroke="#3a1234" stroke-width="5"/>
  <path d="M101 179c9 10 18 15 27 15s18-5 27-15" fill="none" stroke="#e4bd68" stroke-width="8" stroke-linecap="round"/>
  <path d="M62 61c14 12 26 16 40 13M194 61c-14 12-26 16-40 13" fill="none" stroke="#f0d48b" stroke-width="6" stroke-linecap="round" opacity="0.8"/>
</svg>
